<?xml version="1.0" encoding="UTF-8"?>
<svg viewBox="0 0 451 451" xmlns="http://www.w3.org/2000/svg">
 <path d="m38 0.5h375c20.775 0 37.5 16.725 37.5 37.5v375c0 20.775-16.725 37.5-37.5 37.5h-375c-20.775 0-37.5-16.725-37.5-37.5v-375c0-20.775 16.725-37.5 37.5-37.5z" fill="#fff" stroke="#000"/>
 <path d="m38 13h375c13.85 0 25 11.15 25 25v375c0 13.85-11.15 25-25 25h-375c-13.85 0-25-11.15-25-25v-375c0-13.85 11.15-25 25-25z" fill="#21a521" stroke-width=".874"/>
 <path d="m181.95 414.83c-10.417-0.9223-19.79-2.8684-29.008-6.0229-42.147-14.423-73.434-51.839-80.727-96.543-0.42648-2.614-0.93488-6.2329-1.1298-8.0422-0.47662-4.4242-0.47467-20.001 0.003052-24.397 1.5851-14.588 5.3966-28.158 11.55-41.119 11.659-24.56 30.949-44.628 54.558-56.759l3.4106-1.7524 0.1566 1.4317c0.164 1.5007 2.5536 33.758 2.5536 34.472 0 0.2264-0.99255 1.088-2.2056 1.9148-5.1386 3.5021-11.338 9.0742-15.549 13.976-11.771 13.701-18.816 29.27-21.584 47.698-0.51056 3.3991-0.59949 5.1262-0.61377 11.924-0.017212 8.1709 0.19037 10.992 1.2204 16.585 3.379 18.346 11.509 34.099 24.411 47.296 4.4836 4.5866 8.2504 7.7367 13.595 11.369 20.599 14 46.125 18.283 70.161 11.773 5.8568-1.5864 10.471-3.4448 17.322-6.9767 18.34-9.4549 33.598-26.494 41.362-46.192 2.3129-5.8674 4.3421-13.294 5.2118-19.075 0.25891-1.7212 0.53296-3.1282 0.60901-3.1265 0.075928 0.001617 4.8517 9.901 10.613 21.999l10.475 21.996-1.3564 2.5914c-14.076 26.893-38.494 48.14-67.048 58.343-8.9146 3.1853-16.688 5.0107-26.602 6.2464-4.06 0.50601-17.339 0.74759-21.388 0.3891zm144.31-40.886c-0.27808-0.65488-11.323-27.188-24.545-58.963l-24.039-57.772h-59.829c-32.906 0-59.84-0.030792-59.853-0.068481-0.013367-0.03772-2.6502-37.754-5.8596-83.814l-5.8353-83.746-0.9388-2.0966c-1.8889-4.2184-2.8298-8.25-3.0292-12.98-0.68835-16.326 10.644-30.838 26.575-34.03 3.421-0.68559 8.7711-0.6189 12.372 0.1543 9.7374 2.0909 17.912 8.4794 22.411 17.514 2.5182 5.0573 3.5822 9.5429 3.5884 15.129 0.011841 10.654-4.7784 20.356-13.3 26.936-3.9026 3.0135-10.179 5.6793-14.421 6.1249l-1.7084 0.1794 0.1213 1.4038c0.146 1.689 3.5759 64.556 3.5759 65.544v0.6909h83.682v31.25h-80.552l0.1559 1.9874c0.085754 1.0931 0.42865 5.9073 0.76202 10.698l0.6061 8.7109 11.108-0.1505c25.046-0.3394 100.08-0.7168 100.27-0.5044 0.11157 0.1259 10.835 25.423 23.83 56.216s23.723 55.989 23.839 55.99c0.11633 0.001587 8.2239-2.9609 18.017-6.5836 9.7928-3.6226 17.868-6.5226 17.944-6.4443 0.3537 0.36252 9.859 23.879 9.7122 24.028-0.16498 0.1676-62.85 25.416-63.706 25.66-0.32025 0.091095-0.58551-0.20608-0.94995-1.0642z" fill="#fff"/>
</svg>
